<?xml version="1.0" encoding="UTF-8" standalone="no"?>
<svg
   id="Layer_1"
   data-name="Layer 1"
   viewBox="0 0 500 500"
   version="1.1"
   sodipodi:docname="helm-horizontal-black-token-outlined.svg"
   inkscape:version="1.2 (dc2aedaf03, 2022-05-15)"
   inkscape:export-filename="helm-horizontal-black-token-outlined.png"
   inkscape:export-xdpi="96"
   inkscape:export-ydpi="96"
   xmlns:inkscape="http://www.inkscape.org/namespaces/inkscape"
   xmlns:sodipodi="http://sodipodi.sourceforge.net/DTD/sodipodi-0.dtd"
   xmlns="http://www.w3.org/2000/svg"
   xmlns:svg="http://www.w3.org/2000/svg">
  <defs
     id="defs164" />
  <sodipodi:namedview
     id="namedview162"
     pagecolor="#ffffff"
     bordercolor="#000000"
     borderopacity="0.25"
     inkscape:showpageshadow="2"
     inkscape:pageopacity="0.0"
     inkscape:pagecheckerboard="0"
     inkscape:deskcolor="#d1d1d1"
     showgrid="false"
     inkscape:zoom="0.485"
     inkscape:cx="132.98969"
     inkscape:cy="112.37113"
     inkscape:window-width="1280"
     inkscape:window-height="730"
     inkscape:window-x="-6"
     inkscape:window-y="-6"
     inkscape:window-maximized="1"
     inkscape:current-layer="Layer_1" />
  <circle
     style="opacity:1;fill:none;fill-rule:evenodd;stroke:#000000;stroke-width:2.50295;stroke-dasharray:none;stroke-opacity:1"
     id="path7698"
     cx="250"
     cy="250"
     r="241.47099" />
  <path
     d="m 157.33133,149.94214 c -0.4435,-0.42064 -0.92625,-0.87331 -1.40338,-1.33174 -9.78235,-9.39807 -17.35293,-20.2647 -21.92598,-33.10878 -1.27988,-3.59478 -2.24611,-7.26122 -2.07472,-11.13295 0.0163,-0.36744 0.0152,-0.73592 0.0406,-1.10265 0.34503,-4.997826 3.68996,-7.523341 8.57407,-6.339754 a 21.1863,21.1863 0 0 1 4.44388,1.703068 c 5.3423,2.679116 9.69662,6.639736 13.70074,10.983316 a 87.246856,87.246856 0 0 1 16.84204,25.91951 6.4325327,6.4325327 0 0 0 0.30197,0.66757 c 0.0552,0.0997 0.17237,0.16501 0.43362,0.40227 a 136.7375,136.7375 0 0 1 62.8185,-19.27563 c -0.13685,-0.67928 -0.21861,-1.19845 -0.34714,-1.70576 a 87.221929,87.221929 0 0 1 -2.05692,-28.653928 65.186952,65.186952 0 0 1 3.44597,-16.874436 24.288106,24.288106 0 0 1 4.24619,-7.886336 12.162836,12.162836 0 0 1 2.45269,-2.187628 5.4475733,5.4475733 0 0 1 6.228,-0.04342 13.396828,13.396828 0 0 1 4.52817,5.219506 41.13542,41.13542 0 0 1 4.07998,11.37938 87.229938,87.229938 0 0 1 1.64577,25.589142 74.121469,74.121469 0 0 1 -2.70636,15.43775 c 5.52178,1.01719 11.0173,1.80553 16.39645,3.08364 a 144.50808,144.50808 0 0 1 15.84859,4.65463 146.0104,146.0104 0 0 1 15.32874,6.64416 c 4.91986,2.45346 9.60306,5.38141 14.51258,8.17082 0.15949,-0.33573 0.39107,-0.73644 0.54739,-1.16466 a 84.24866,84.24866 0 0 1 25.50948,-36.25689 29.275372,29.275372 0 0 1 9.16612,-5.336705 13.371273,13.371273 0 0 1 2.85193,-0.655259 c 4.85676,-0.556147 6.89554,2.500022 7.25454,6.149904 a 23.216711,23.216711 0 0 1 -0.59997,8.02843 68.157089,68.157089 0 0 1 -8.31946,19.14143 c -5.26472,8.50692 -11.51399,16.16978 -19.45578,22.35352 -0.23442,0.18252 -0.44028,0.40174 -0.83728,0.76782 a 137.84076,137.84076 0 0 1 20.61869,23.94454 8.4995402,8.4995402 0 0 1 -1.30956,0.23076 c -8.21513,0.0116 -16.43041,-0.0142 -24.64528,0.0357 a 3.104481,3.104481 0 0 1 -2.45975,-1.31033 114.6543,114.6543 0 0 0 -68.36818,-36.09111 111.15238,111.15238 0 0 0 -23.47709,-0.90656 113.51619,113.51619 0 0 0 -63.99486,24.66414 108.59995,108.59995 0 0 0 -13.16238,12.28291 3.6661331,3.6661331 0 0 1 -2.99536,1.36261 c -7.84693,-0.0545 -15.69444,-0.0271 -23.54174,-0.0271 h -1.66864 c 0.47916,-1.86703 5.30356,-8.48061 10.76452,-14.38483 4.07247,-4.40303 8.38664,-8.58253 12.76866,-13.04008 z"
     id="path149"
     style="fill:#ffffff;stroke:#000000;stroke-width:2.30332;stroke-dasharray:none;stroke-opacity:1" />
  <path
     d="m 357.37028,325.77294 a 136.95579,136.95579 0 0 1 -18.58768,21.06099 c 0.55004,0.45798 0.99705,0.82993 1.44379,1.20222 a 83.981142,83.981142 0 0 1 26.11616,37.32957 26.84113,26.84113 0 0 1 1.70731,11.18067 11.54135,11.54135 0 0 1 -0.57985,2.86262 5.5883914,5.5883914 0 0 1 -6.32521,3.89462 17.238468,17.238468 0 0 1 -5.24347,-1.55557 39.722757,39.722757 0 0 1 -7.11884,-4.5087 83.420777,83.420777 0 0 1 -25.53676,-36.21419 c -0.14535,-0.39802 -0.30407,-0.79117 -0.56013,-1.45526 a 150.92095,150.92095 0 0 1 -19.39311,10.86083 140.85633,140.85633 0 0 1 -20.69155,7.53978 145.42097,145.42097 0 0 1 -21.94575,4.1776 c 0.13031,0.65141 0.20505,1.17062 0.33918,1.67402 a 84.645954,84.645954 0 0 1 2.30339,28.25598 62.65097,62.65097 0 0 1 -3.42924,17.42766 60.670514,60.670514 0 0 1 -3.22912,6.78018 10.381868,10.381868 0 0 1 -1.81326,2.30342 c -3.08594,3.1859 -6.77051,3.21303 -9.77832,-0.0571 a 21.151502,21.151502 0 0 1 -3.02927,-4.3557 c -2.38562,-4.47815 -3.61342,-9.34756 -4.49002,-14.31303 a 90.609357,90.609357 0 0 1 -1.05364,-20.5195 73.254199,73.254199 0 0 1 2.23661,-14.8751 c 0.10861,-0.41302 0.20779,-0.82931 0.28791,-1.24857 0.0204,-0.10664 -0.0492,-0.23051 -0.13233,-0.57239 a 136.55458,136.55458 0 0 1 -62.77855,-19.37887 c -0.31783,0.70495 -0.59086,1.2985 -0.85418,1.89633 a 85.658004,85.658004 0 0 1 -23.95903,32.11511 29.587712,29.587712 0 0 1 -9.34062,5.39569 9.3738191,9.3738191 0 0 1 -5.0515,0.54292 5.5193547,5.5193547 0 0 1 -4.18941,-3.48068 c -1.098,-2.65478 -0.90348,-5.41578 -0.53063,-8.15423 a 42.994945,42.994945 0 0 1 3.33993,-11.04895 87.226186,87.226186 0 0 1 20.5553,-29.27933 c 0.35588,-0.33698 0.72092,-0.66447 1.07065,-1.0076 a 2.9155217,2.9155217 0 0 0 0.28326,-0.50807 138.71282,138.71282 0 0 1 -22.07329,-24.28126 c 0.76339,-0.0622 1.2741,-0.13956 1.78488,-0.14003 8.15226,-0.008 16.30473,0.0213 24.45658,-0.0338 a 3.6484165,3.6484165 0 0 1 2.87144,1.26082 113.93392,113.93392 0 0 0 30.55073,22.3958 108.50694,108.50694 0 0 0 38.53771,11.45468 q 54.80175,5.32714 94.28171,-33.22703 a 5.9280623,5.9280623 0 0 1 4.64634,-1.89453 c 7.59946,0.094 15.20073,0.0387 22.80135,0.0387 h 1.96436 z"
     id="path151"
     style="fill:#ffffff;stroke:#000000;stroke-width:2.30332;stroke-dasharray:none;stroke-opacity:1"
     inkscape:export-filename="helmtokenlogooutlined.png"
     inkscape:export-xdpi="96"
     inkscape:export-ydpi="96" />
</svg>
